<svg xmlns="http://www.w3.org/2000/svg" width="1280" height="640" viewBox="0 0 1280 640" role="img" aria-labelledby="t d"><title id="t">Jangyoon Library</title><desc id="d">이야기 데이터와 삽화가 웹북, 한영 읽기판, PDF로 이어지는 어린이 콘텐츠 파이프라인.</desc><defs><linearGradient id="bg" x2="1" y2="1"><stop stop-color="#f9efdc"/><stop offset="1" stop-color="#fffaf0"/></linearGradient><filter id="s"><feDropShadow dx="0" dy="22" stdDeviation="18" flood-color="#7d5228" flood-opacity=".18"/></filter></defs><rect width="1280" height="640" rx="40" fill="url(#bg)"/><circle cx="1160" cy="70" r="200" fill="#f2b966" opacity=".22"/><path d="M0 540C230 470 380 610 630 540s390-80 650-4v104H0Z" fill="#dcebc7"/>
<g font-family="Nunito,Segoe UI,sans-serif"><text x="70" y="76" fill="#9b693a" font-size="17" font-weight="800" letter-spacing="4">STORY DATA → READING EXPERIENCE</text><text x="70" y="150" fill="#2c271e" font-size="59" font-weight="900">Jangyoon <tspan fill="#d67d33">Library</tspan></text><text x="70" y="198" fill="#746855" font-size="23">재사용 가능한 어린이 웹북 제작 파이프라인</text>
<g transform="translate(70 264)" filter="url(#s)"><rect width="330" height="234" rx="28" fill="#fffdf8"/><rect x="24" y="24" width="282" height="114" rx="18" fill="#9ecae0"/><circle cx="232" cy="60" r="26" fill="#ffe58a"/><path d="M24 118c55-52 100-50 154 0 42-54 76-52 128-10v30H24Z" fill="#94b47b"/><text x="24" y="178" fill="#2c271e" font-size="25" font-weight="850">북풍과 해님</text><text x="24" y="208" fill="#8a7558" font-size="16">15 scenes · KR / KR-EN</text></g>
<g transform="translate(458 286)"><text x="0" y="24" fill="#9b693a" font-size="14" font-weight="800">CONTENT PIPELINE</text><g transform="translate(0 52)"><rect width="178" height="94" rx="18" fill="#fff" stroke="#ead8bd"/><text x="24" y="40" fill="#d67d33" font-size="15" font-weight="800">01 • AUTHOR</text><text x="24" y="70" fill="#2c271e" font-size="19" font-weight="800">JSON + art</text></g><path d="M190 99h48" stroke="#d67d33" stroke-width="4"/><path d="m230 90 12 9-12 9" fill="none" stroke="#d67d33" stroke-width="4"/><g transform="translate(252 52)"><rect width="178" height="94" rx="18" fill="#fff" stroke="#ead8bd"/><text x="24" y="40" fill="#2e5a7b" font-size="15" font-weight="800">02 • BUILD</text><text x="24" y="70" fill="#2c271e" font-size="19" font-weight="800">React + Vite</text></g><path d="M442 99h48" stroke="#2e5a7b" stroke-width="4"/><path d="m482 90 12 9-12 9" fill="none" stroke="#2e5a7b" stroke-width="4"/><g transform="translate(504 52)"><rect width="218" height="94" rx="18" fill="#2e5a7b"/><text x="24" y="40" fill="#bde0f2" font-size="15" font-weight="800">03 • PUBLISH</text><text x="24" y="70" fill="#fff" font-size="19" font-weight="800">Webbook + PDF</text></g></g>
<g transform="translate(458 454)"><rect width="722" height="54" rx="27" fill="#fff" stroke="#ead8bd"/><text x="28" y="35" fill="#746855" font-size="17">Responsive reader</text><circle cx="205" cy="27" r="4" fill="#d67d33"/><text x="224" y="35" fill="#746855" font-size="17">Bilingual edition</text><circle cx="404" cy="27" r="4" fill="#d67d33"/><text x="424" y="35" fill="#746855" font-size="17">Print-ready</text><circle cx="552" cy="27" r="4" fill="#d67d33"/><text x="572" y="35" fill="#746855" font-size="17">Validated content</text></g><text x="70" y="586" fill="#8a7558" font-size="16">shinjaehyun20 / jangyoon-Library</text></g></svg>
